<?xml version="1.0" standalone="no"?>
<!DOCTYPE svg PUBLIC "-//W3C//DTD SVG 20010904//EN"
 "http://www.w3.org/TR/2001/REC-SVG-20010904/DTD/svg10.dtd">
<svg version="1.0" xmlns="http://www.w3.org/2000/svg"
 width="512.000000pt" height="512.000000pt" viewBox="0 0 512.000000 512.000000"
 preserveAspectRatio="xMidYMid meet">
<metadata>
Created by potrace 1.14, written by Peter Selinger 2001-2017
</metadata>
<g transform="translate(0.000000,512.000000) scale(0.100000,-0.100000)"
fill="#000000" stroke="none">
<path d="M2774 4249 c-159 -33 -211 -211 -95 -327 88 -87 251 -52 303 65 61
139 -61 293 -208 262z"/>
<path d="M2824 3429 c-97 -12 -169 -45 -285 -130 -272 -200 -563 -728 -668
-1214 -67 -309 -72 -613 -15 -835 68 -263 200 -393 396 -392 218 1 464 198
666 534 45 75 162 300 162 312 0 3 11 29 24 58 58 128 121 335 155 508 31 161
32 172 36 385 3 180 1 211 -20 310 -40 189 -94 306 -175 379 -77 69 -172 98
-276 85z m122 -97 c90 -48 138 -288 110 -557 -12 -119 -20 -169 -53 -325 -34
-168 -36 -175 -48 -221 l-6 -26 -375 0 c-222 0 -374 4 -374 10 0 14 57 210 97
332 123 376 285 658 437 759 80 53 148 62 212 28z m-36 -1262 c0 -25 -66 -262
-101 -365 -135 -393 -309 -668 -469 -744 -115 -55 -212 -8 -251 120 -39 129
-45 377 -14 559 2 14 7 45 10 70 8 54 64 316 80 366 2 7 119 10 374 10 336 0
371 -2 371 -16z"/>
</g>
</svg>
